<?xml version="1.0" encoding="utf-8"?>
<svg id="master-artboard" viewBox="0 0 1400 980" version="1.1" xmlns="http://www.w3.org/2000/svg" x="0px" y="0px" style="enable-background:new 0 0 336 235.2;" width="1400px" height="980px"><rect id="ee-background" x="0" y="0" width="1400" height="980" style="fill: white; fill-opacity: 0; pointer-events: none;"/><defs><style id="ee-google-fonts">@import url(https://fonts.googleapis.com/css?family=Audiowide:400);</style></defs>





















































































































































<g transform="matrix(0.9800000610351562, 0, 0, 0.9800000610351562, 209.99994128241087, -0.0000058202181207889225)"><metadata> Svg Vector Icons : http://www.onlinewebfonts.com/icon </metadata><g><g transform="translate(0.000000,511.000000) scale(0.100000,-0.100000)"><path d="M4313.5,4974.3c-1347.5-196.5-2521.6-913-3319-2024.7c-69.3-99.4-131.8-166.4-136.4-150.2c-6.9,16.2-71.6,325.9-145.6,693.4c-113.3,554.7-141,661-171,654.1c-20.8-6.9-97.1-23.1-171-37c-71.7-13.9-131.7-39.3-131.7-53.2c2.3-57.8,411.4-2029.3,425.3-2043.2c9.2-11.6,2017.8,536.2,2040.9,557c4.6,4.6-85.5,321.3-97.1,332.8c-4.6,4.6-1278.2-346.7-1451.5-402.2c-37-11.6-32.4,2.3,20.8,87.8c201.1,321.3,584.8,753.5,910.7,1023.9c809,674.9,1851.4,1051.7,2912.3,1051.7c1215.7,0,2346-471.5,3215-1338.3c910.7-913,1377.6-2096.4,1331.3-3376.8c-20.8-536.2-113.3-1007.7-293.5-1467.7c-818.2-2089.4-2990.9-3277.5-5175-2829.1c-989.2,203.4-1916.1,758.1-2565.6,1534.7C874.3-2045.1,511.4-1134.5,453.6-147.6l-13.9,258.9h-171H100V-80.5c0-557,182.6-1310.5,455.3-1890.7c564-1190.3,1594.8-2121.8,2824.4-2549.4c547.8-189.5,1014.7-268.1,1620.2-268.1c1331.3,0,2528.6,494.6,3467,1433S9900-1220,9900,111.3c0,1331.3-494.6,2526.3-1433,3467c-781.2,783.5-1786.6,1273.5-2889.1,1409.9C5312,5020.5,4572.4,5013.6,4313.5,4974.3z" style="stroke-opacity: 1; stroke: rgb(0, 0, 0); stroke-width: 0; fill: rgb(255, 60, 0);"/></g></g></g></svg>