<svg width="24" height="24" viewBox="0 0 24 24" xmlns="http://www.w3.org/2000/svg">
    <path d="M5.611 2A3.624 3.624 0 0 0 2 5.611V18.39A3.624 3.624 0 0 0 5.611 22H18.39A3.624 3.624 0 0 0 22 18.389V5.61A3.624 3.624 0 0 0 18.389 2H5.61zm0 1.667H18.39c1.083 0 1.944.86 1.944 1.944v.833H3.667v-.833c0-1.083.86-1.944 1.944-1.944zM3.667 8.11h16.666V18.39a1.932 1.932 0 0 1-1.944 1.944H5.61a1.932 1.932 0 0 1-1.944-1.944V8.11zm3.61 2.222a1.389 1.389 0 1 0 0 2.778 1.389 1.389 0 0 0 0-2.778zm4.723 0a1.389 1.389 0 1 0 0 2.778 1.389 1.389 0 0 0 0-2.778zm4.722 0a1.389 1.389 0 1 0 0 2.778 1.389 1.389 0 0 0 0-2.778zm-9.444 5a1.389 1.389 0 1 0 0 2.778 1.389 1.389 0 0 0 0-2.778zm4.722 0a1.389 1.389 0 1 0 0 2.778 1.389 1.389 0 0 0 0-2.778z" fill="#5DC137" fill-rule="evenodd"/>
</svg>
